<?xml version="1.0" encoding="UTF-8" standalone="no"?>
<!DOCTYPE svg PUBLIC "-//W3C//DTD SVG 1.1//EN" "http://www.w3.org/Graphics/SVG/1.1/DTD/svg11.dtd">
<svg width="100%" height="100%" viewBox="0 0 24 20" version="1.1" xmlns="http://www.w3.org/2000/svg" xmlns:xlink="http://www.w3.org/1999/xlink" xml:space="preserve" xmlns:serif="http://www.serif.com/" style="fill-rule:evenodd;clip-rule:evenodd;">
    <g transform="matrix(1,0,0,1,-0.952371,-1.96638)">
        <g>
            <path d="M10.161,20.108C7.812,19.295 5.65,17.2 4.292,14.619C2.933,12.035 2.477,9.153 3.276,6.844C3.913,5.003 6.039,3.814 8.983,3.431C11.867,3.056 15.134,3.527 17.414,4.583C19.679,5.631 21.065,7.161 21.71,8.969C22.362,10.795 22.301,13.024 21.437,15.519C20.616,17.891 19.017,19.43 17.047,20.193C15.057,20.962 12.625,20.961 10.161,20.108Z" style="fill:rgb(137,188,217);fill-rule:nonzero;stroke:rgb(137,188,217);stroke-width:2px;"/>
            <path d="M10.825,13.225L8.675,11.075C8.492,10.892 8.258,10.8 7.975,10.8C7.692,10.8 7.458,10.892 7.275,11.075C7.092,11.258 7,11.492 7,11.775C7,12.058 7.092,12.292 7.275,12.475L10.125,15.325C10.325,15.525 10.558,15.625 10.825,15.625C11.092,15.625 11.325,15.525 11.525,15.325L17.175,9.675C17.358,9.492 17.45,9.258 17.45,8.975C17.45,8.692 17.358,8.458 17.175,8.275C16.992,8.092 16.758,8 16.475,8C16.192,8 15.958,8.092 15.775,8.275L10.825,13.225Z" style="fill:rgb(248,245,236);fill-rule:nonzero;"/>
        </g>
    </g>
</svg>
