<svg width="64" height="38" viewBox="0 0 64 38" fill="none" xmlns="http://www.w3.org/2000/svg">
<path d="M18.6406 26.8594C18.1354 26.8438 17.6979 26.7266 17.3281 26.5078C16.9583 26.2891 16.651 26 16.4062 25.6406C16.1719 25.2969 15.9948 24.9115 15.875 24.4844C15.7552 24.0625 15.6953 23.6432 15.6953 23.2266V21.9062C15.6953 21.1562 15.5156 20.612 15.1562 20.2734C14.8021 19.9349 14.2578 19.763 13.5234 19.7578V18.625C14.2578 18.625 14.8021 18.4583 15.1562 18.125C15.5156 17.7865 15.6953 17.2396 15.6953 16.4844V15.1562C15.6953 14.7344 15.75 14.3047 15.8594 13.8672C15.974 13.4245 16.1536 13.0286 16.3984 12.6797C16.6276 12.3464 16.9271 12.0755 17.2969 11.8672C17.6667 11.6536 18.1146 11.5391 18.6406 11.5234L18.8047 12.4219C18.4297 12.4323 18.1302 12.5208 17.9062 12.6875C17.6875 12.8542 17.5234 13.0651 17.4141 13.3203C17.2995 13.5807 17.2266 13.8724 17.1953 14.1953C17.1641 14.5182 17.1484 14.8385 17.1484 15.1562V16.4844C17.1484 17.1094 17.0026 17.6589 16.7109 18.1328C16.4245 18.6016 15.9792 18.9583 15.375 19.2031C15.9792 19.4427 16.4245 19.7995 16.7109 20.2734C16.9974 20.7422 17.1432 21.2865 17.1484 21.9062V23.2266C17.1484 23.5495 17.1745 23.8698 17.2266 24.1875C17.2786 24.5104 17.3698 24.7995 17.5 25.0547C17.625 25.3151 17.7917 25.5286 18 25.6953C18.2135 25.862 18.4818 25.9505 18.8047 25.9609L18.6406 26.8594Z" fill="#F8F5EC"/>
<path d="M47.5234 25.9609C47.8411 25.9505 48.1068 25.862 48.3203 25.6953C48.5339 25.5286 48.7057 25.3151 48.8359 25.0547C48.9609 24.7995 49.0495 24.5104 49.1016 24.1875C49.1589 23.8698 49.1875 23.5495 49.1875 23.2266V21.9062C49.1875 21.4948 49.2474 21.1146 49.3672 20.7656C49.4922 20.4167 49.6823 20.1146 49.9375 19.8594C50.0729 19.724 50.224 19.6016 50.3906 19.4922C50.5625 19.3828 50.75 19.2865 50.9531 19.2031C50.7448 19.1198 50.5521 19.0208 50.375 18.9062C50.2031 18.7917 50.0521 18.6641 49.9219 18.5234C49.6719 18.263 49.487 17.9609 49.3672 17.6172C49.2474 17.2682 49.1875 16.8906 49.1875 16.4844V15.1562C49.1875 14.8385 49.1693 14.5182 49.1328 14.1953C49.1016 13.8724 49.0312 13.5807 48.9219 13.3203C48.8073 13.0651 48.6406 12.8542 48.4219 12.6875C48.2031 12.5208 47.9062 12.4323 47.5312 12.4219L47.6875 11.5234C48.1927 11.5391 48.625 11.6458 48.9844 11.8438C49.349 12.0417 49.6484 12.2995 49.8828 12.6172C50.1484 12.9766 50.3385 13.3802 50.4531 13.8281C50.5729 14.276 50.6328 14.7188 50.6328 15.1562V16.4844C50.6328 16.7969 50.6615 17.0729 50.7188 17.3125C50.7812 17.5469 50.8724 17.75 50.9922 17.9219C51.1641 18.1667 51.401 18.3464 51.7031 18.4609C52.0104 18.5703 52.3776 18.625 52.8047 18.625V19.7578C52.4297 19.763 52.1016 19.8099 51.8203 19.8984C51.5443 19.9818 51.3177 20.1146 51.1406 20.2969C50.9688 20.474 50.8411 20.6953 50.7578 20.9609C50.6745 21.2266 50.6328 21.5417 50.6328 21.9062V23.2266C50.6328 23.6432 50.5755 24.0625 50.4609 24.4844C50.3464 24.9115 50.1693 25.2995 49.9297 25.6484C49.6849 25.9974 49.3776 26.2839 49.0078 26.5078C48.638 26.7318 48.1979 26.849 47.6875 26.8594L47.5234 25.9609Z" fill="#F8F5EC"/>
<path d="M39.4609 35H48.5436L61 19.3504L48.5436 3H39.4609L22.5928 35H14.2886L3 19.3504L14.2886 3H22.5928" stroke="#89BCD9" stroke-width="4" stroke-linecap="round"/>
</svg>
