<svg width="58" height="38" viewBox="0 0 58 38" fill="none" xmlns="http://www.w3.org/2000/svg">
<path d="M14.6406 26.8594C14.1354 26.8438 13.6979 26.7266 13.3281 26.5078C12.9583 26.2891 12.651 26 12.4062 25.6406C12.1719 25.2969 11.9948 24.9115 11.875 24.4844C11.7552 24.0625 11.6953 23.6432 11.6953 23.2266V21.9062C11.6953 21.1562 11.5156 20.612 11.1562 20.2734C10.8021 19.9349 10.2578 19.763 9.52344 19.7578V18.625C10.2578 18.625 10.8021 18.4583 11.1562 18.125C11.5156 17.7865 11.6953 17.2396 11.6953 16.4844V15.1562C11.6953 14.7344 11.75 14.3047 11.8594 13.8672C11.974 13.4245 12.1536 13.0286 12.3984 12.6797C12.6276 12.3464 12.9271 12.0755 13.2969 11.8672C13.6667 11.6536 14.1146 11.5391 14.6406 11.5234L14.8047 12.4219C14.4297 12.4323 14.1302 12.5208 13.9062 12.6875C13.6875 12.8542 13.5234 13.0651 13.4141 13.3203C13.2995 13.5807 13.2266 13.8724 13.1953 14.1953C13.1641 14.5182 13.1484 14.8385 13.1484 15.1562V16.4844C13.1484 17.1094 13.0026 17.6589 12.7109 18.1328C12.4245 18.6016 11.9792 18.9583 11.375 19.2031C11.9792 19.4427 12.4245 19.7995 12.7109 20.2734C12.9974 20.7422 13.1432 21.2865 13.1484 21.9062V23.2266C13.1484 23.5495 13.1745 23.8698 13.2266 24.1875C13.2786 24.5104 13.3698 24.7995 13.5 25.0547C13.625 25.3151 13.7917 25.5286 14 25.6953C14.2135 25.862 14.4818 25.9505 14.8047 25.9609L14.6406 26.8594Z" fill="#F8F5EC"/>
<path d="M43.5234 25.9609C43.8411 25.9505 44.1068 25.862 44.3203 25.6953C44.5339 25.5286 44.7057 25.3151 44.8359 25.0547C44.9609 24.7995 45.0495 24.5104 45.1016 24.1875C45.1589 23.8698 45.1875 23.5495 45.1875 23.2266V21.9062C45.1875 21.4948 45.2474 21.1146 45.3672 20.7656C45.4922 20.4167 45.6823 20.1146 45.9375 19.8594C46.0729 19.724 46.224 19.6016 46.3906 19.4922C46.5625 19.3828 46.75 19.2865 46.9531 19.2031C46.7448 19.1198 46.5521 19.0208 46.375 18.9062C46.2031 18.7917 46.0521 18.6641 45.9219 18.5234C45.6719 18.263 45.487 17.9609 45.3672 17.6172C45.2474 17.2682 45.1875 16.8906 45.1875 16.4844V15.1562C45.1875 14.8385 45.1693 14.5182 45.1328 14.1953C45.1016 13.8724 45.0312 13.5807 44.9219 13.3203C44.8073 13.0651 44.6406 12.8542 44.4219 12.6875C44.2031 12.5208 43.9062 12.4323 43.5312 12.4219L43.6875 11.5234C44.1927 11.5391 44.625 11.6458 44.9844 11.8438C45.349 12.0417 45.6484 12.2995 45.8828 12.6172C46.1484 12.9766 46.3385 13.3802 46.4531 13.8281C46.5729 14.276 46.6328 14.7188 46.6328 15.1562V16.4844C46.6328 16.7969 46.6615 17.0729 46.7188 17.3125C46.7812 17.5469 46.8724 17.75 46.9922 17.9219C47.1641 18.1667 47.401 18.3464 47.7031 18.4609C48.0104 18.5703 48.3776 18.625 48.8047 18.625V19.7578C48.4297 19.763 48.1016 19.8099 47.8203 19.8984C47.5443 19.9818 47.3177 20.1146 47.1406 20.2969C46.9688 20.474 46.8411 20.6953 46.7578 20.9609C46.6745 21.2266 46.6328 21.5417 46.6328 21.9062V23.2266C46.6328 23.6432 46.5755 24.0625 46.4609 24.4844C46.3464 24.9115 46.1693 25.2995 45.9297 25.6484C45.6849 25.9974 45.3776 26.2839 45.0078 26.5078C44.638 26.7318 44.1979 26.849 43.6875 26.8594L43.5234 25.9609Z" fill="#F8F5EC"/>
<path d="M35.689 35H43.8322L55 19.3504L43.8322 3H35.689L20.566 35H13.1208L3 19.3504L13.1208 3H20.566" stroke="#89BCD9" stroke-width="4" stroke-linecap="round"/>
</svg>
