<?xml version="1.0" encoding="UTF-8" standalone="no"?>
<!DOCTYPE svg PUBLIC "-//W3C//DTD SVG 1.1//EN" "http://www.w3.org/Graphics/SVG/1.1/DTD/svg11.dtd">
<svg width="100%" height="100%" viewBox="0 0 37 53" version="1.1" xmlns="http://www.w3.org/2000/svg" xmlns:xlink="http://www.w3.org/1999/xlink" xml:space="preserve" xmlns:serif="http://www.serif.com/" style="fill-rule:evenodd;clip-rule:evenodd;stroke-linejoin:round;stroke-miterlimit:2;">
    <g transform="matrix(1,0,0,1,-8.76084,-0.646986)">
        <g transform="matrix(0.83602,0,0,0.882433,-1.83965,-6.41248)">
            <path d="M14.146,47.172L20.077,9.163C20.281,7.868 22.02,7.561 22.634,8.72L29.008,20.651L14.146,47.172ZM56.313,56.41L50.654,21.401C50.484,20.31 49.12,19.867 48.336,20.651L12.68,56.41L32.417,67.489C33.644,68.17 35.178,68.17 36.405,67.489L56.313,56.41ZM40.291,25.867L35.724,17.174C35.212,16.186 33.815,16.186 33.303,17.174L13.225,52.967L40.291,25.867Z" style="fill:rgb(137,188,217);fill-rule:nonzero;"/>
        </g>
    </g>
</svg>
