<?xml version="1.0" encoding="UTF-8" standalone="no"?>
<!DOCTYPE svg PUBLIC "-//W3C//DTD SVG 1.1//EN" "http://www.w3.org/Graphics/SVG/1.1/DTD/svg11.dtd">
<svg width="100%" height="100%" viewBox="0 0 60 60" version="1.1" xmlns="http://www.w3.org/2000/svg" xmlns:xlink="http://www.w3.org/1999/xlink" xml:space="preserve" xmlns:serif="http://www.serif.com/" style="fill-rule:evenodd;clip-rule:evenodd;stroke-linejoin:round;stroke-miterlimit:2;">
    <g transform="matrix(1,0,0,1,5e-07,-8)">
        <path d="M58.874,35.357L32.643,9.126C31.142,7.625 28.662,7.625 27.162,9.126L21.746,14.542L28.662,21.458C30.294,20.936 32.121,21.263 33.361,22.568C34.666,23.873 34.992,25.7 34.47,27.331L41.126,33.987C42.757,33.465 44.584,33.791 45.889,35.096C47.716,36.858 47.716,39.795 45.889,41.622C44.062,43.449 41.191,43.449 39.364,41.622C37.994,40.251 37.667,38.294 38.385,36.597L32.186,30.398L32.186,46.711C32.643,46.907 33.034,47.233 33.426,47.56C35.253,49.321 35.253,52.258 33.426,54.085C31.599,55.847 28.728,55.847 26.901,54.085C25.073,52.258 25.073,49.387 26.901,47.56C27.357,47.103 27.879,46.777 28.401,46.581L28.401,30.072C27.879,29.876 27.357,29.485 26.901,29.093C25.53,27.723 25.204,25.765 25.922,24.069L19.07,17.282L1.126,35.227C-0.375,36.728 -0.375,39.207 1.126,40.708L27.292,66.874C28.793,68.375 31.272,68.375 32.773,66.874L58.809,40.839C60.375,39.272 60.375,36.858 58.874,35.357Z" style="fill:rgb(137,188,217);fill-rule:nonzero;"/>
    </g>
</svg>
