<?xml version="1.0" encoding="UTF-8" standalone="no"?>
<!DOCTYPE svg PUBLIC "-//W3C//DTD SVG 1.1//EN" "http://www.w3.org/Graphics/SVG/1.1/DTD/svg11.dtd">
<svg width="100%" height="100%" viewBox="0 0 54 54" version="1.1" xmlns="http://www.w3.org/2000/svg" xmlns:xlink="http://www.w3.org/1999/xlink" xml:space="preserve" xmlns:serif="http://www.serif.com/" style="fill-rule:evenodd;clip-rule:evenodd;stroke-linejoin:round;stroke-miterlimit:2;">
    <g id="JavaScript" transform="matrix(0.935473,0,0,0.95366,-13.4009,-10.8412)">
        <path d="M12,8L72,8L72,68L12,68L12,8ZM65.68,39.762C64.465,37.575 62.804,36.076 60.413,35.549C58.712,35.144 57.01,35.144 55.309,35.508C49.799,36.643 47.449,43.287 51.014,47.703C52.27,49.242 53.931,50.174 55.673,50.984C57.213,51.714 58.793,52.402 60.332,53.172C61.386,53.699 61.831,54.671 61.71,55.846C61.588,57.021 60.778,57.669 59.765,58.034C57.496,58.844 54.863,58.115 53.323,56.211C52.999,55.806 52.675,55.36 52.351,54.914C50.812,55.806 49.313,56.656 47.814,57.548C48.745,59.371 50.042,60.829 51.824,61.801C54.863,63.463 58.064,63.706 61.345,62.895C63.492,62.369 65.315,61.275 66.45,59.29C68.556,55.522 67.341,50.822 63.614,48.513C61.953,47.5 60.089,46.812 58.347,45.92C57.496,45.475 56.605,45.07 55.876,44.502C54.579,43.449 54.822,41.342 56.281,40.532C57.699,39.722 59.684,40.208 60.778,41.626C61.021,41.91 61.183,42.234 61.426,42.558C62.804,41.626 64.222,40.694 65.68,39.762ZM27.8,58.155C28.61,59.897 29.785,61.275 31.446,62.166C33.594,63.341 35.943,63.544 38.334,63.179C40.481,62.855 42.263,61.883 43.438,59.938C44.411,58.317 44.694,56.535 44.694,54.631L44.694,35.59L39.063,35.59L39.063,54.469C39.063,55.036 39.022,55.644 38.941,56.211C38.779,57.143 38.293,57.831 37.361,58.115C35.619,58.642 34.201,58.115 33.188,56.616C32.945,56.211 32.702,55.806 32.419,55.4C30.839,56.332 29.34,57.224 27.8,58.155Z" style="fill:rgb(137,188,217);fill-rule:nonzero;"/>
    </g>
</svg>
