<?xml version="1.0" encoding="UTF-8" standalone="no"?>
<!DOCTYPE svg PUBLIC "-//W3C//DTD SVG 1.1//EN" "http://www.w3.org/Graphics/SVG/1.1/DTD/svg11.dtd">
<svg width="100%" height="100%" viewBox="0 0 56 60" version="1.1" xmlns="http://www.w3.org/2000/svg" xmlns:xlink="http://www.w3.org/1999/xlink" xml:space="preserve" xmlns:serif="http://www.serif.com/" style="fill-rule:evenodd;clip-rule:evenodd;stroke-linejoin:round;stroke-miterlimit:2;">
    <g transform="matrix(1,0,0,1,-6.5,-8)">
        <g>
            <path d="M27.314,62.892C23.32,61.755 19.807,59.661 16.74,56.737C15.777,57.079 14.797,57.422 13.798,57.747C13.335,57.892 12.871,57.838 12.39,57.657C11.534,57.332 11.017,56.7 10.642,55.924C10.125,54.895 9.465,53.957 8.948,52.928C8.485,51.971 7.807,51.141 7.415,50.148C7.219,49.661 6.701,49.336 6.701,48.722C6.238,47.964 6.684,47.296 6.951,46.628C7.022,46.448 7.112,46.213 7.272,46.141C7.914,45.852 8.235,45.202 8.77,44.805C9.019,44.625 9.287,44.426 9.572,44.209C9.162,42.134 8.805,40.058 8.805,37.928C8.805,35.816 9.18,33.776 9.572,31.755C8.877,31.105 8.235,30.473 7.557,29.877C6.862,29.264 6.452,28.505 6.541,27.711C6.594,27.278 6.719,26.809 6.933,26.448C7.593,25.383 8.199,24.264 8.841,23.18C9.358,22.314 9.804,21.412 10.375,20.563C10.678,20.13 10.856,19.625 11.159,19.173C11.748,18.325 12.924,17.91 13.887,18.199C14.743,18.451 15.546,18.83 16.419,18.993C16.509,19.011 16.58,19.137 16.669,19.227C19.754,16.321 23.266,14.246 27.296,13.036C27.457,12.549 27.492,12.025 27.689,11.52C27.831,11.141 27.796,10.672 27.867,10.256C28.063,9.173 28.723,8.542 29.668,8.217C30.007,8.108 30.345,8 30.756,8C33.252,8.036 35.748,8.036 38.245,8C38.958,8 39.564,8.289 40.135,8.614C40.652,8.884 40.937,9.462 41.08,10.004C41.329,10.996 41.472,12.007 41.668,13.054C45.68,14.209 49.193,16.285 52.26,19.209C53.223,18.866 54.203,18.523 55.202,18.199C55.665,18.054 56.129,18.108 56.611,18.289C57.466,18.614 57.984,19.246 58.358,20.022C58.875,21.051 59.535,21.989 60.052,23.018C60.516,23.975 61.193,24.805 61.585,25.798C61.782,26.285 62.299,26.61 62.299,27.224C62.762,27.982 62.316,28.65 62.049,29.318C61.978,29.498 61.889,29.733 61.728,29.805C61.086,30.094 60.765,30.744 60.23,31.141C59.981,31.321 59.713,31.52 59.428,31.737C59.838,33.812 60.195,35.888 60.195,38.018C60.195,40.13 59.874,42.17 59.428,44.191C60.123,44.841 60.765,45.473 61.443,46.069C62.138,46.682 62.548,47.44 62.459,48.235C62.406,48.668 62.299,49.137 62.067,49.498C61.425,50.545 60.819,51.628 60.195,52.693C59.41,54.011 58.768,55.437 57.859,56.682C57.698,57.368 57.056,57.422 56.593,57.675C56.093,57.946 55.594,57.874 55.041,57.711C54.221,57.477 53.437,57.061 52.581,56.953C52.492,56.935 52.42,56.809 52.331,56.718C49.246,59.661 45.751,61.755 41.668,62.928C41.472,63.903 41.294,64.913 41.08,65.906C40.866,66.881 40.224,67.495 39.314,67.783C38.976,67.892 38.619,68 38.227,68C35.73,67.964 33.234,67.964 30.738,68C30.024,68 29.418,67.711 28.848,67.386C28.331,67.116 28.027,66.538 27.92,65.996C27.724,64.931 27.528,63.939 27.314,62.892ZM28.473,46.989C28.83,46.791 29.24,46.664 29.258,46.231C29.293,45.581 29.383,44.913 29.24,44.3C28.99,43.253 28.544,42.242 28.277,41.195C28.099,40.527 27.706,39.895 27.724,39.173C27.154,37.747 26.797,36.249 26.316,34.805C25.923,33.614 25.638,32.386 25.21,31.213C24.978,30.563 24.925,29.841 24.497,29.264C24.461,29.209 24.443,29.173 24.443,29.173C23.962,28.848 23.463,28.957 23.035,28.957C22.785,29.191 22.571,29.39 22.375,29.57C22.357,30.148 21.947,30.599 22.018,31.159C21.394,32.567 21.127,34.083 20.61,35.527C20.342,36.267 20.182,37.025 19.968,37.783C19.772,38.542 19.344,39.227 19.344,40.04C18.666,41.574 18.327,43.217 17.828,44.823C17.703,45.22 17.632,45.599 17.882,45.978C17.953,46.087 17.917,46.249 17.917,46.231C18.202,46.538 18.416,46.755 18.595,46.971L19.665,46.971C19.914,46.646 20.164,46.339 20.396,46.033C20.342,45.004 20.556,44.318 21.02,43.217L26.262,43.217C26.405,43.794 26.476,44.354 26.672,44.877C26.761,45.094 26.851,45.311 26.815,45.527C26.761,46.195 26.975,46.718 27.724,46.971C27.903,46.989 28.17,46.989 28.473,46.989ZM32.646,46.989C33.127,46.953 33.68,47.097 34.072,46.7C34.215,46.52 34.34,46.339 34.518,46.087L34.518,40.491C35.82,40.491 37.103,40.437 38.369,40.509C39.136,40.545 39.76,40.311 40.366,39.931C40.652,39.751 40.901,39.48 41.151,39.227C41.811,38.578 42.132,37.783 42.15,36.845L42.15,32.422C42.15,32.206 42.096,31.971 42.042,31.755C41.846,30.978 41.436,30.401 40.884,29.895C40.242,29.3 39.493,28.939 38.601,28.939L32.61,28.939C32.414,29.155 32.218,29.372 31.986,29.588L31.986,46.357C32.218,46.556 32.432,46.773 32.646,46.989ZM45.484,46.989L49.193,46.989C49.407,46.773 49.621,46.556 49.835,46.357L49.835,45.274C49.567,44.769 49.157,44.462 48.622,44.408L48.622,31.592C49.015,31.394 49.353,31.213 49.746,30.996C49.799,30.527 49.835,30.04 49.87,29.697C49.585,29.372 49.389,29.137 49.228,28.957L45.591,28.957C45.288,29.227 45.074,29.426 44.806,29.679C44.86,30.112 44.931,30.599 44.985,31.014C45.413,31.231 45.751,31.412 46.055,31.574L46.055,44.426C45.876,44.462 45.68,44.426 45.609,44.516C45.359,44.769 44.931,44.841 44.842,45.256L44.842,46.339C45.056,46.556 45.27,46.773 45.484,46.989Z" style="fill:rgb(137,188,217);fill-rule:nonzero;"/>
            <path d="M25.319,40.456C24.267,40.492 23.161,40.51 22.055,40.546C22.02,40.546 21.966,40.618 21.859,40.709C21.877,39.589 22.501,38.687 22.573,37.658C23.108,36.756 23.161,35.691 23.518,34.68C23.625,34.788 23.785,34.896 23.785,34.987C23.803,35.763 24.249,36.431 24.391,37.171C24.498,37.676 24.784,38.163 24.855,38.669C24.926,39.319 25.354,39.806 25.319,40.456Z" style="fill:rgb(137,188,217);fill-rule:nonzero;"/>
            <path d="M39.674,36.952C39.55,37.151 39.443,37.35 39.3,37.53C39.05,37.819 38.729,37.981 38.319,37.963C37.071,37.945 35.823,37.963 34.539,37.963L34.539,31.465C35.841,31.465 37.178,31.447 38.498,31.465C39.122,31.483 39.657,32.133 39.674,32.819L39.674,36.952Z" style="fill:rgb(137,188,217);fill-rule:nonzero;"/>
        </g>
    </g>
</svg>
