<?xml version="1.0" encoding="UTF-8" standalone="no"?>
<!DOCTYPE svg PUBLIC "-//W3C//DTD SVG 1.1//EN" "http://www.w3.org/Graphics/SVG/1.1/DTD/svg11.dtd">
<svg width="100%" height="100%" viewBox="0 0 60 60" version="1.1" xmlns="http://www.w3.org/2000/svg" xmlns:xlink="http://www.w3.org/1999/xlink" xml:space="preserve" xmlns:serif="http://www.serif.com/" style="fill-rule:evenodd;clip-rule:evenodd;stroke-linejoin:round;stroke-miterlimit:2;">
    <g transform="matrix(1,0,0,1,-12.5234,-8)">
        <path d="M72.414,12.775C71.978,10.483 70.204,8.628 67.94,8.136C67.83,8.109 67.721,8.109 67.585,8.082C67.558,8.082 67.53,8.027 67.503,8L17.462,8C17.435,8.027 17.408,8.082 17.353,8.082C15.088,8.464 13.178,10.265 12.66,12.557C12.633,12.639 12.578,12.748 12.523,12.857L12.523,63.034C12.551,63.089 12.605,63.116 12.605,63.17C13.151,65.681 14.679,67.236 17.162,67.864C17.244,67.891 17.298,67.945 17.353,68L67.585,68C67.639,67.973 67.667,67.918 67.721,67.891C70.204,67.318 71.732,65.817 72.36,63.334C72.387,63.252 72.36,63.143 72.387,63.061C72.387,63.034 72.442,63.007 72.469,62.98L72.469,12.939C72.469,12.884 72.414,12.857 72.414,12.775ZM47.312,41.261L39.863,41.261C39.863,41.288 39.836,41.288 39.836,41.315L39.836,62.679L33.86,62.679L33.86,41.288L26.357,41.288L26.357,36.513L47.285,36.513L47.285,41.261L47.312,41.261ZM67.448,55.531C67.394,56.458 67.257,57.359 66.875,58.232C66.766,58.505 66.684,58.75 66.548,59.023C66.057,60.06 65.238,60.797 64.283,61.397C63.192,62.079 61.991,62.461 60.736,62.707C59.345,62.98 57.953,63.061 56.534,63.007C55.852,62.98 55.17,62.98 54.488,62.898C52.878,62.707 51.296,62.352 49.822,61.643C49.74,61.615 49.631,61.479 49.631,61.397L49.631,55.967C50.068,56.267 50.504,56.568 50.941,56.813C52.005,57.441 53.178,57.877 54.379,58.15C55.416,58.396 56.453,58.423 57.489,58.368C58.281,58.341 59.072,58.15 59.781,57.795C60.409,57.468 60.927,57.031 61.064,56.295C61.2,55.64 61.146,54.985 60.764,54.412C60.218,53.594 59.454,53.075 58.608,52.639C57.653,52.175 56.698,51.765 55.716,51.329C54.27,50.674 52.851,49.965 51.678,48.873C50.723,47.973 50.013,46.909 49.686,45.626C49.495,44.862 49.44,44.098 49.468,43.334C49.495,41.452 50.177,39.842 51.514,38.505C52.605,37.413 53.942,36.759 55.416,36.377C56.425,36.131 57.435,35.94 58.472,35.913C59.208,35.913 59.945,35.831 60.654,35.858C61.773,35.885 62.865,35.94 63.956,36.213C64.665,36.404 65.402,36.595 66.111,36.759C66.248,36.786 66.302,36.868 66.302,37.031L66.302,42.134C66.302,42.188 66.302,42.243 66.275,42.325C66.057,42.188 65.866,42.079 65.675,41.97C64.802,41.479 63.874,41.151 62.919,40.906C61.855,40.66 60.791,40.497 59.699,40.524C58.963,40.551 58.199,40.66 57.517,40.906C56.671,41.206 55.989,41.697 55.689,42.597C55.443,43.307 55.634,43.907 56.071,44.48C56.616,45.19 57.353,45.681 58.144,46.063C59.208,46.581 60.3,47.018 61.337,47.509C62.537,48.082 63.738,48.655 64.747,49.501C65.62,50.237 66.412,51.056 66.848,52.147C67.094,52.802 67.312,53.484 67.312,54.221C67.421,54.658 67.476,55.094 67.448,55.531Z" style="fill:rgb(137,188,217);fill-rule:nonzero;"/>
    </g>
</svg>
