<svg width="75" height="64" viewBox="0 0 75 64" fill="none" xmlns="http://www.w3.org/2000/svg">
<path d="M68.5366 37.1732C71.0626 51.3942 56.4691 61.6857 39.1184 58.3061C21.7678 54.9265 2.76035 40.5807 5.18272 24.8328C7.40156 10.408 21.7512 2.28895 32.5709 4.39646C49.9215 7.7761 65.3745 19.3702 68.5366 37.1732Z" fill="#89BCD9" fill-opacity="0.12"/>
<path d="M19 17.0423C19 25.2266 28.3377 35.1965 35.7174 41C42.1935 35.6429 51.6064 27.0866 52.2842 17.0423C52.796 9.45643 46.3352 -0.219418 35.7174 0.00379216C22.9911 0.271327 19 10.2715 19 17.0423Z" fill="#F8F5EC"/>
<path d="M39.5319 15.1473C39.4642 17.3487 37.7087 19.0823 35.6109 19.0194C33.5131 18.9565 31.8673 17.1208 31.9351 14.9194C32.0028 12.718 33.7584 10.9843 35.8562 11.0473C37.954 11.1102 39.5997 12.9458 39.5319 15.1473Z" fill="#89BCD9"/>
</svg>
