<svg width="27" height="30" viewBox="0 0 27 30" fill="none" xmlns="http://www.w3.org/2000/svg">
<path d="M21.824 5H4.36239C3.1619 5 2.1906 6.125 2.1906 7.5L2.17969 22.5C2.17969 23.875 3.1619 25 4.36239 25H21.824C23.0245 25 24.0067 23.875 24.0067 22.5V7.5C24.0067 6.125 23.0245 5 21.824 5ZM21.3874 10.3125L13.6716 15.8375C13.3224 16.0875 12.864 16.0875 12.5148 15.8375L4.79893 10.3125C4.52609 10.1125 4.36239 9.775 4.36239 9.4125C4.36239 8.575 5.15907 8.075 5.78114 8.5125L13.0932 13.75L20.4052 8.5125C21.0273 8.075 21.824 8.575 21.824 9.4125C21.824 9.775 21.6603 10.1125 21.3874 10.3125Z" fill="#89BCD9"/>
</svg>
