<svg width="27" height="31" viewBox="0 0 27 31" fill="none" xmlns="http://www.w3.org/2000/svg">
<path d="M7.24073 13.9715C8.81578 17.6195 11.3533 20.5973 14.4487 22.4664L16.8551 19.6305C17.1504 19.2824 17.5879 19.1664 17.9707 19.3211C19.1958 19.798 20.5192 20.0559 21.8755 20.0559C22.4771 20.0559 22.9693 20.6359 22.9693 21.3449V25.8437C22.9693 26.5527 22.4771 27.1328 21.8755 27.1328C11.6049 27.1328 3.28125 17.323 3.28125 5.21875C3.28125 4.50977 3.77345 3.92969 4.37503 3.92969H8.20326C8.80484 3.92969 9.29704 4.50977 9.29704 5.21875C9.29704 6.83008 9.5158 8.37695 9.9205 9.8207C10.0408 10.2719 9.95331 10.7746 9.64705 11.1355L7.24073 13.9715Z" fill="#89BCD9"/>
</svg>
