<?xml version="1.0" encoding="UTF-8" standalone="no"?>
<!DOCTYPE svg PUBLIC "-//W3C//DTD SVG 1.1//EN" "http://www.w3.org/Graphics/SVG/1.1/DTD/svg11.dtd">
<svg width="100%" height="100%" viewBox="0 0 16 16" version="1.1" xmlns="http://www.w3.org/2000/svg" xmlns:xlink="http://www.w3.org/1999/xlink" xml:space="preserve" xmlns:serif="http://www.serif.com/" style="fill-rule:evenodd;clip-rule:evenodd;stroke-linejoin:round;stroke-miterlimit:2;">
    <g transform="matrix(1,0,0,1.00076,0.0177971,-0.569997)">
        <path d="M7.909,0.729C12.24,0.729 15.756,4.243 15.756,8.571C15.756,12.898 12.24,16.412 7.909,16.412C3.578,16.412 0.062,12.898 0.062,8.571C0.062,4.243 3.578,0.729 7.909,0.729ZM8.651,7.191L8.651,6.169L6.251,6.169C6.281,6.847 6.251,13.394 6.251,13.394L8.651,13.394L8.651,9.359C8.651,9.143 8.667,8.927 8.731,8.773C8.904,8.342 9.299,7.895 9.963,7.895C10.832,7.895 11.179,8.557 11.179,9.529L11.179,13.394L13.58,13.394L13.58,9.25C13.58,7.03 12.396,5.998 10.816,5.998C9.542,5.998 8.971,6.698 8.651,7.191L8.651,7.216L8.635,7.216L8.651,7.191ZM4.943,13.394L4.943,6.169L2.542,6.169L2.542,13.394L4.943,13.394ZM3.743,5.182C4.58,5.182 5.101,4.628 5.101,3.934C5.086,3.225 4.581,2.686 3.759,2.686C2.937,2.686 2.4,3.226 2.4,3.934C2.4,4.628 2.921,5.182 3.727,5.182L3.743,5.182Z" style="fill:rgb(34,34,34);"/>
    </g>
</svg>
