<?xml version="1.0" encoding="UTF-8" standalone="no"?>
<!DOCTYPE svg PUBLIC "-//W3C//DTD SVG 1.1//EN" "http://www.w3.org/Graphics/SVG/1.1/DTD/svg11.dtd">
<svg width="100%" height="100%" viewBox="0 0 54 54" version="1.1" xmlns="http://www.w3.org/2000/svg" xmlns:xlink="http://www.w3.org/1999/xlink" xml:space="preserve" xmlns:serif="http://www.serif.com/" style="fill-rule:evenodd;clip-rule:evenodd;stroke-linejoin:round;stroke-miterlimit:2;">
    <g transform="matrix(0.938834,0,0,0.903255,2,-7.42135)">
        <path d="M0.005,8.011C0.005,8.243 -0.006,8.402 0.005,8.56C0.415,12.959 0.824,17.357 1.223,21.766C1.784,28.003 2.334,34.241 2.895,40.468C3.531,47.467 4.178,54.456 4.793,61.455C4.836,61.962 5.019,62.184 5.505,62.311C12.406,64.172 19.287,66.043 26.188,67.894C26.652,68.021 27.213,68.042 27.676,67.915C34.6,66.054 41.512,64.162 48.436,62.29C48.964,62.142 49.147,61.91 49.19,61.381C49.406,58.738 49.665,56.084 49.902,53.441C50.301,49.064 50.689,44.687 51.088,40.31C51.552,35.172 52.027,30.044 52.49,24.906C52.835,21.078 53.202,17.262 53.547,13.434C53.709,11.637 53.849,9.84 54,8L0.005,8L0.005,8.011ZM43.583,23.277C43.227,27.147 42.871,31.027 42.515,34.897C42.105,39.348 41.696,43.799 41.286,48.239C41.167,49.519 40.995,50.798 40.962,52.088C40.941,52.775 40.639,52.955 40.056,53.113C35.894,54.213 31.742,55.344 27.59,56.465C27.407,56.518 27.234,56.581 27.051,56.634C26.986,56.602 26.922,56.581 26.846,56.549C22.403,55.365 17.96,54.17 13.517,52.965C13.334,52.912 13.097,52.627 13.075,52.426C12.762,49.127 12.482,45.829 12.18,42.467L18.963,42.467C19.082,43.788 19.211,45.131 19.319,46.484C19.416,47.732 19.405,47.732 20.602,48.049C22.748,48.609 24.905,49.159 27.051,49.709L27.029,49.656C29.38,49.043 31.731,48.44 34.082,47.785C34.298,47.721 34.546,47.383 34.578,47.15C34.718,46.135 34.794,45.11 34.88,44.095C35.02,42.456 35.16,40.817 35.311,39.105L27.029,39.105L27.051,39.062L11.867,39.062C11.662,36.874 11.468,34.706 11.263,32.475L27.062,32.475L27.04,32.433L35.915,32.433C36.12,30.16 36.325,27.94 36.53,25.677L27.029,25.677L27.051,25.635L26.878,25.635C21.562,25.646 16.245,25.646 10.929,25.656C10.853,25.656 10.778,25.625 10.638,25.582C10.444,23.425 10.239,21.269 10.045,19.048L27.051,19.048L27.029,19.006L43.939,19.006C43.82,20.486 43.701,21.882 43.583,23.277Z" style="fill:rgb(137,188,217);fill-rule:nonzero;"/>
    </g>
</svg>
