<?xml version="1.0" encoding="UTF-8" standalone="no"?>
<!DOCTYPE svg PUBLIC "-//W3C//DTD SVG 1.1//EN" "http://www.w3.org/Graphics/SVG/1.1/DTD/svg11.dtd">
<svg width="100%" height="100%" viewBox="0 0 84 100" version="1.1" xmlns="http://www.w3.org/2000/svg" xmlns:xlink="http://www.w3.org/1999/xlink" xml:space="preserve" xmlns:serif="http://www.serif.com/" style="fill-rule:evenodd;clip-rule:evenodd;stroke-linejoin:round;stroke-miterlimit:2;">
    <g transform="matrix(1.12,0,0,1.12,42,49)">
        <g transform="matrix(1,0,0,1,-30,-50)">
            <clipPath id="_clip1">
                <rect x="0" y="0" width="60" height="100"/>
            </clipPath>
            <g clip-path="url(#_clip1)">
                <path d="M58.874,35.357L32.643,9.126C31.142,7.625 28.662,7.625 27.162,9.126L21.745,14.542L28.662,21.458C30.294,20.936 32.121,21.263 33.361,22.568C34.666,23.873 34.992,25.7 34.47,27.331L41.126,33.987C42.757,33.465 44.584,33.791 45.889,35.096C47.716,36.858 47.716,39.794 45.889,41.621C44.062,43.449 41.191,43.449 39.364,41.621C37.993,40.251 37.667,38.294 38.385,36.597L32.186,30.398L32.186,46.711C32.643,46.907 33.034,47.233 33.426,47.559C35.253,49.321 35.253,52.258 33.426,54.085C31.599,55.847 28.728,55.847 26.901,54.085C25.073,52.258 25.073,49.387 26.901,47.559C27.357,47.103 27.879,46.776 28.401,46.581L28.401,30.072C27.879,29.876 27.357,29.485 26.901,29.093C25.53,27.723 25.204,25.765 25.922,24.069L19.07,17.282L1.126,35.227C-0.375,36.728 -0.375,39.207 1.126,40.708L27.292,66.874C28.793,68.375 31.272,68.375 32.773,66.874L58.809,40.839C60.375,39.272 60.375,36.858 58.874,35.357Z" style="fill:rgb(137,188,217);fill-rule:nonzero;"/>
                <path d="M27.052,92.884C26.872,93.04 26.62,93.196 26.296,93.352C25.972,93.496 25.612,93.628 25.216,93.748C24.832,93.868 24.43,93.964 24.01,94.036C23.602,94.108 23.218,94.144 22.858,94.144C21.814,94.144 20.872,93.982 20.032,93.658C19.204,93.334 18.49,92.884 17.89,92.308C17.302,91.732 16.846,91.054 16.522,90.274C16.21,89.494 16.054,88.648 16.054,87.736C16.054,86.656 16.228,85.69 16.576,84.838C16.936,83.974 17.422,83.248 18.034,82.66C18.658,82.06 19.372,81.61 20.176,81.31C20.98,80.998 21.832,80.842 22.732,80.842C23.488,80.842 24.19,80.932 24.838,81.112C25.486,81.292 26.056,81.52 26.548,81.796L25.954,83.398C25.714,83.254 25.414,83.122 25.054,83.002C24.706,82.882 24.346,82.786 23.974,82.714C23.602,82.63 23.254,82.588 22.93,82.588C22.162,82.588 21.466,82.708 20.842,82.948C20.218,83.176 19.684,83.512 19.24,83.956C18.796,84.388 18.454,84.916 18.214,85.54C17.974,86.152 17.854,86.842 17.854,87.61C17.854,88.318 17.974,88.966 18.214,89.554C18.454,90.142 18.796,90.652 19.24,91.084C19.684,91.504 20.212,91.834 20.824,92.074C21.448,92.302 22.132,92.416 22.876,92.416C23.32,92.416 23.758,92.374 24.19,92.29C24.622,92.194 24.994,92.062 25.306,91.894L25.306,89.302L22.714,89.302L22.714,87.628L27.052,87.628L27.052,92.884ZM30.382,80.986L32.128,80.986L32.128,94L30.382,94L30.382,80.986ZM34.912,80.986L43.552,80.986L43.552,82.66L40.06,82.66L40.06,94L38.314,94L38.314,82.66L34.912,82.66L34.912,80.986Z" style="fill:rgb(137,188,217);fill-rule:nonzero;"/>
            </g>
        </g>
    </g>
</svg>
