<svg width="77" height="124" viewBox="0 0 77 124" fill="none" xmlns="http://www.w3.org/2000/svg">
<g clip-path="url(#clip0_1988_1511)">
<path d="M16.0016 19.8008V60.3008C11.1016 54.9008 8.10156 47.8008 8.10156 40.0008C8.10156 32.2008 11.1016 25.1008 16.0016 19.8008Z" fill="#89BCD9"/>
<path d="M19.2031 24.1992L36.5031 58.8992H19.2031V24.1992Z" fill="#89BCD9"/>
<path d="M38.1016 55.0016L21.1016 21.1016H55.1016L38.1016 55.0016Z" fill="#89BCD9"/>
<path d="M38.0984 10C45.8984 10 52.9984 13 58.2984 17.9H17.8984C23.1984 13 30.2984 10 38.0984 10Z" fill="#89BCD9"/>
<path d="M57.0031 58.8992H39.7031L57.0031 24.1992V58.8992Z" fill="#89BCD9"/>
<path d="M58.2984 62.1016C52.9984 67.0016 45.8984 70.0016 38.0984 70.0016C30.2984 70.0016 23.1984 67.0016 17.8984 62.1016H58.2984Z" fill="#89BCD9"/>
<path d="M60.2031 60.2008V19.8008C65.1031 25.1008 68.1031 32.2008 68.1031 40.0008C68.1031 47.8008 65.1031 54.9008 60.2031 60.2008Z" fill="#89BCD9"/>
<path d="M19.2031 24.2031L36.5031 58.9031H19.2031V24.2031Z" fill="#89BCD9"/>
<path d="M38.1016 55.0016L21.1016 21.1016H55.1016L38.1016 55.0016Z" fill="#89BCD9"/>
<path d="M39.7031 58.9031L57.0031 24.2031V58.9031H39.7031Z" fill="#89BCD9"/>
<path d="M21.1016 21.1016H55.1016L38.1016 55.0016L21.1016 21.1016Z" fill="#89BCD9"/>
</g>
<path d="M2.37395 96V82.572H2.39195L9.21395 92.256L8.47595 92.112L15.28 82.572H15.316V96H13.588V86.532L13.696 87.414L8.78195 94.362H8.74595L3.75995 87.414L4.06595 86.604V96H2.37395ZM21.7376 96.18C21.0416 96.18 20.4056 96.03 19.8296 95.73C19.2656 95.43 18.8156 94.992 18.4796 94.416C18.1556 93.828 17.9936 93.114 17.9936 92.274C17.9936 91.446 18.1676 90.732 18.5156 90.132C18.8636 89.52 19.3256 89.052 19.9016 88.728C20.4896 88.404 21.1316 88.242 21.8276 88.242C22.5236 88.242 23.1116 88.404 23.5916 88.728C24.0716 89.04 24.4376 89.412 24.6896 89.844L24.5816 90.132L24.7436 88.548H26.2916V96H24.6176V94.056L24.7976 94.488C24.7496 94.608 24.6416 94.764 24.4736 94.956C24.3176 95.136 24.1016 95.322 23.8256 95.514C23.5616 95.706 23.2556 95.868 22.9076 96C22.5596 96.12 22.1696 96.18 21.7376 96.18ZM22.1876 94.794C22.6076 94.794 22.9856 94.716 23.3216 94.56C23.6576 94.404 23.9336 94.188 24.1496 93.912C24.3776 93.624 24.5336 93.282 24.6176 92.886V91.428C24.5216 91.068 24.3536 90.756 24.1136 90.492C23.8736 90.216 23.5856 90.006 23.2496 89.862C22.9136 89.706 22.5416 89.628 22.1336 89.628C21.6896 89.628 21.2816 89.736 20.9096 89.952C20.5376 90.168 20.2376 90.468 20.0096 90.852C19.7936 91.236 19.6856 91.686 19.6856 92.202C19.6856 92.682 19.7996 93.12 20.0276 93.516C20.2556 93.912 20.5616 94.224 20.9456 94.452C21.3296 94.68 21.7436 94.794 22.1876 94.794ZM29.9085 85.272H31.5825V88.584H33.6345V89.898H31.5825V96H29.9085V89.898H28.5405V88.584H29.9085V85.272ZM39.1132 96.18C38.2612 96.18 37.5292 96.012 36.9172 95.676C36.3052 95.328 35.8312 94.86 35.4952 94.272C35.1712 93.672 35.0092 92.988 35.0092 92.22C35.0092 91.488 35.1952 90.822 35.5672 90.222C35.9392 89.622 36.4372 89.142 37.0612 88.782C37.6852 88.422 38.3812 88.242 39.1492 88.242C40.1332 88.242 40.9492 88.53 41.5972 89.106C42.2452 89.682 42.6832 90.474 42.9112 91.482L36.7732 93.642L36.3772 92.652L41.4172 90.816L41.0572 91.05C40.9132 90.654 40.6732 90.312 40.3372 90.024C40.0012 89.724 39.5632 89.574 39.0232 89.574C38.5672 89.574 38.1592 89.688 37.7992 89.916C37.4392 90.132 37.1572 90.432 36.9532 90.816C36.7492 91.2 36.6472 91.638 36.6472 92.13C36.6472 92.646 36.7552 93.102 36.9712 93.498C37.1872 93.882 37.4812 94.188 37.8532 94.416C38.2372 94.632 38.6692 94.74 39.1492 94.74C39.4732 94.74 39.7852 94.68 40.0852 94.56C40.3972 94.44 40.6852 94.284 40.9492 94.092L41.7232 95.334C41.3512 95.586 40.9312 95.79 40.4632 95.946C40.0072 96.102 39.5572 96.18 39.1132 96.18ZM46.5028 88.548L46.6648 90.708L46.5748 90.42C46.7668 89.964 47.0428 89.58 47.4028 89.268C47.7748 88.944 48.1588 88.698 48.5548 88.53C48.9628 88.35 49.3168 88.26 49.6168 88.26L49.5268 89.916C48.9628 89.88 48.4648 89.988 48.0328 90.24C47.6128 90.492 47.2768 90.828 47.0248 91.248C46.7848 91.668 46.6648 92.118 46.6648 92.598V96H45.0088V88.548H46.5028ZM51.7764 88.548H53.4504V96H51.7764V88.548ZM51.6504 85.848C51.6504 85.584 51.7524 85.362 51.9564 85.182C52.1724 85.002 52.4064 84.912 52.6584 84.912C52.9104 84.912 53.1324 85.002 53.3244 85.182C53.5284 85.362 53.6304 85.584 53.6304 85.848C53.6304 86.124 53.5284 86.352 53.3244 86.532C53.1324 86.7 52.9104 86.784 52.6584 86.784C52.4064 86.784 52.1724 86.694 51.9564 86.514C51.7524 86.334 51.6504 86.112 51.6504 85.848ZM59.4427 96.18C58.7467 96.18 58.1107 96.03 57.5347 95.73C56.9707 95.43 56.5207 94.992 56.1847 94.416C55.8607 93.828 55.6987 93.114 55.6987 92.274C55.6987 91.446 55.8727 90.732 56.2207 90.132C56.5687 89.52 57.0307 89.052 57.6067 88.728C58.1947 88.404 58.8367 88.242 59.5327 88.242C60.2287 88.242 60.8167 88.404 61.2967 88.728C61.7767 89.04 62.1427 89.412 62.3947 89.844L62.2867 90.132L62.4487 88.548H63.9967V96H62.3227V94.056L62.5027 94.488C62.4547 94.608 62.3467 94.764 62.1787 94.956C62.0227 95.136 61.8067 95.322 61.5307 95.514C61.2667 95.706 60.9607 95.868 60.6127 96C60.2647 96.12 59.8747 96.18 59.4427 96.18ZM59.8927 94.794C60.3127 94.794 60.6907 94.716 61.0267 94.56C61.3627 94.404 61.6387 94.188 61.8547 93.912C62.0827 93.624 62.2387 93.282 62.3227 92.886V91.428C62.2267 91.068 62.0587 90.756 61.8187 90.492C61.5787 90.216 61.2907 90.006 60.9547 89.862C60.6187 89.706 60.2467 89.628 59.8387 89.628C59.3947 89.628 58.9867 89.736 58.6147 89.952C58.2427 90.168 57.9427 90.468 57.7147 90.852C57.4987 91.236 57.3907 91.686 57.3907 92.202C57.3907 92.682 57.5047 93.12 57.7327 93.516C57.9607 93.912 58.2667 94.224 58.6507 94.452C59.0347 94.68 59.4487 94.794 59.8927 94.794ZM66.8935 82.068H68.5675V96H66.8935V82.068ZM12.2177 118V104.986H15.7637C17.0477 104.986 18.1397 105.184 19.0397 105.58C19.9517 105.976 20.6837 106.498 21.2357 107.146C21.7877 107.794 22.1897 108.514 22.4417 109.306C22.7057 110.086 22.8377 110.866 22.8377 111.646C22.8377 112.63 22.6637 113.512 22.3157 114.292C21.9797 115.072 21.5117 115.738 20.9117 116.29C20.3117 116.842 19.6217 117.268 18.8417 117.568C18.0737 117.856 17.2577 118 16.3937 118H12.2177ZM13.9637 116.326H16.0517C16.7717 116.326 17.4317 116.218 18.0317 116.002C18.6437 115.786 19.1717 115.474 19.6157 115.066C20.0717 114.658 20.4257 114.16 20.6777 113.572C20.9297 112.972 21.0557 112.294 21.0557 111.538C21.0557 110.734 20.9237 110.032 20.6597 109.432C20.3957 108.82 20.0357 108.31 19.5797 107.902C19.1237 107.494 18.6077 107.188 18.0317 106.984C17.4557 106.768 16.8497 106.66 16.2137 106.66H13.9637V116.326ZM28.8124 118.18C27.9604 118.18 27.2284 118.012 26.6164 117.676C26.0044 117.328 25.5304 116.86 25.1944 116.272C24.8704 115.672 24.7084 114.988 24.7084 114.22C24.7084 113.488 24.8944 112.822 25.2664 112.222C25.6384 111.622 26.1364 111.142 26.7604 110.782C27.3844 110.422 28.0804 110.242 28.8484 110.242C29.8324 110.242 30.6484 110.53 31.2964 111.106C31.9444 111.682 32.3824 112.474 32.6104 113.482L26.4724 115.642L26.0764 114.652L31.1164 112.816L30.7564 113.05C30.6124 112.654 30.3724 112.312 30.0364 112.024C29.7004 111.724 29.2624 111.574 28.7224 111.574C28.2664 111.574 27.8584 111.688 27.4984 111.916C27.1384 112.132 26.8564 112.432 26.6524 112.816C26.4484 113.2 26.3464 113.638 26.3464 114.13C26.3464 114.646 26.4544 115.102 26.6704 115.498C26.8864 115.882 27.1804 116.188 27.5524 116.416C27.9364 116.632 28.3684 116.74 28.8484 116.74C29.1724 116.74 29.4844 116.68 29.7844 116.56C30.0964 116.44 30.3844 116.284 30.6484 116.092L31.4224 117.334C31.0504 117.586 30.6304 117.79 30.1624 117.946C29.7064 118.102 29.2564 118.18 28.8124 118.18ZM36.796 118.144C36.268 118.144 35.752 118.054 35.248 117.874C34.756 117.682 34.348 117.4 34.024 117.028L34.726 116.056C35.038 116.356 35.356 116.584 35.68 116.74C36.016 116.884 36.346 116.956 36.67 116.956C36.91 116.956 37.132 116.926 37.336 116.866C37.54 116.806 37.702 116.71 37.822 116.578C37.954 116.434 38.02 116.242 38.02 116.002C38.02 115.738 37.93 115.528 37.75 115.372C37.582 115.216 37.36 115.09 37.084 114.994C36.82 114.898 36.538 114.808 36.238 114.724C35.626 114.52 35.158 114.238 34.834 113.878C34.51 113.518 34.348 113.08 34.348 112.564C34.348 112.168 34.444 111.802 34.636 111.466C34.84 111.118 35.134 110.836 35.518 110.62C35.914 110.404 36.4 110.296 36.976 110.296C37.492 110.296 37.954 110.362 38.362 110.494C38.77 110.614 39.154 110.818 39.514 111.106L38.848 112.15C38.632 111.922 38.374 111.754 38.074 111.646C37.774 111.538 37.504 111.478 37.264 111.466C37.06 111.454 36.862 111.484 36.67 111.556C36.49 111.628 36.34 111.73 36.22 111.862C36.1 111.994 36.04 112.15 36.04 112.33C36.04 112.582 36.124 112.786 36.292 112.942C36.46 113.098 36.676 113.224 36.94 113.32C37.216 113.404 37.486 113.494 37.75 113.59C38.122 113.698 38.452 113.842 38.74 114.022C39.028 114.202 39.256 114.424 39.424 114.688C39.604 114.952 39.694 115.282 39.694 115.678C39.694 116.122 39.586 116.536 39.37 116.92C39.166 117.292 38.848 117.592 38.416 117.82C37.996 118.036 37.456 118.144 36.796 118.144ZM42.0381 110.548H43.7121V118H42.0381V110.548ZM41.9121 107.848C41.9121 107.584 42.0141 107.362 42.2181 107.182C42.4341 107.002 42.6681 106.912 42.9201 106.912C43.1721 106.912 43.3941 107.002 43.5861 107.182C43.7901 107.362 43.8921 107.584 43.8921 107.848C43.8921 108.124 43.7901 108.352 43.5861 108.532C43.3941 108.7 43.1721 108.784 42.9201 108.784C42.6681 108.784 42.4341 108.694 42.2181 108.514C42.0141 108.334 41.9121 108.112 41.9121 107.848ZM50.1904 121.69C49.6384 121.69 49.1524 121.624 48.7324 121.492C48.3124 121.372 47.9284 121.198 47.5804 120.97C47.2444 120.742 46.9204 120.484 46.6084 120.196L47.5804 119.062C47.9764 119.434 48.3784 119.722 48.7864 119.926C49.1944 120.13 49.6504 120.232 50.1544 120.232C50.7184 120.232 51.1924 120.136 51.5764 119.944C51.9724 119.764 52.2724 119.506 52.4764 119.17C52.6804 118.846 52.7824 118.468 52.7824 118.036L52.8004 116.02L52.9444 116.344C52.7284 116.86 52.3384 117.298 51.7744 117.658C51.2104 118.006 50.5264 118.18 49.7224 118.18C49.0384 118.18 48.4084 118.006 47.8324 117.658C47.2684 117.31 46.8124 116.842 46.4644 116.254C46.1284 115.654 45.9604 114.982 45.9604 114.238C45.9604 113.458 46.1404 112.774 46.5004 112.186C46.8604 111.586 47.3344 111.112 47.9224 110.764C48.5104 110.416 49.1524 110.242 49.8484 110.242C50.5084 110.242 51.1084 110.38 51.6484 110.656C52.2004 110.92 52.6024 111.262 52.8544 111.682L52.7644 111.988L52.9444 110.548H54.4744V118.054C54.4744 118.726 54.3004 119.338 53.9524 119.89C53.6044 120.442 53.1124 120.88 52.4764 121.204C51.8404 121.528 51.0784 121.69 50.1904 121.69ZM47.6344 114.202C47.6344 114.682 47.7484 115.12 47.9764 115.516C48.2044 115.912 48.5104 116.224 48.8944 116.452C49.2904 116.68 49.7284 116.794 50.2084 116.794C50.6524 116.794 51.0484 116.716 51.3964 116.56C51.7564 116.392 52.0564 116.17 52.2964 115.894C52.5364 115.606 52.7044 115.276 52.8004 114.904V113.428C52.6924 113.068 52.5124 112.756 52.2604 112.492C52.0084 112.216 51.7084 112.006 51.3604 111.862C51.0124 111.706 50.6284 111.628 50.2084 111.628C49.7284 111.628 49.2904 111.736 48.8944 111.952C48.5104 112.168 48.2044 112.474 47.9764 112.87C47.7484 113.254 47.6344 113.698 47.6344 114.202ZM58.8602 110.548L59.0042 112.366L58.9322 112.078C59.1722 111.526 59.5622 111.088 60.1022 110.764C60.6422 110.428 61.2662 110.26 61.9742 110.26C62.6822 110.26 63.2582 110.47 63.7022 110.89C64.1582 111.298 64.3922 111.832 64.4042 112.492V118H62.7122V113.086C62.7002 112.678 62.5802 112.348 62.3522 112.096C62.1362 111.832 61.7942 111.7 61.3262 111.7C60.8942 111.7 60.5042 111.82 60.1562 112.06C59.8082 112.3 59.5322 112.63 59.3282 113.05C59.1362 113.47 59.0402 113.956 59.0402 114.508V118H57.3662V110.548H58.8602Z" fill="#89BCD9"/>
<defs>
<clipPath id="clip0_1988_1511">
<rect width="60" height="60" fill="white" transform="translate(8.10156 10)"/>
</clipPath>
</defs>
</svg>
