<?xml version="1.0" encoding="UTF-8" standalone="no"?>
<!DOCTYPE svg PUBLIC "-//W3C//DTD SVG 1.1//EN" "http://www.w3.org/Graphics/SVG/1.1/DTD/svg11.dtd">
<svg width="100%" height="100%" viewBox="0 0 54 54" version="1.1" xmlns="http://www.w3.org/2000/svg" xmlns:xlink="http://www.w3.org/1999/xlink" xml:space="preserve" xmlns:serif="http://www.serif.com/" style="fill-rule:evenodd;clip-rule:evenodd;stroke-linejoin:round;stroke-miterlimit:2;">
    <g id="icons-default-shopware" transform="matrix(2.00845,0,0,2.00845,2.879018,2.87695)">
        <path d="M19.088,21.302C19.13,21.335 19.155,21.386 19.155,21.44C19.154,21.494 19.129,21.544 19.085,21.576C17.025,23.101 14.579,23.907 12.011,23.907C8.83,23.907 5.842,22.668 3.596,20.422C1.347,18.175 0.11,15.187 0.11,12.009C0.11,8.832 1.349,5.844 3.596,3.598C5.844,1.349 8.832,0.112 12.011,0.112C14.951,0.112 17.775,1.194 19.959,3.159C20.015,3.208 20.032,3.29 20,3.358C19.969,3.426 19.897,3.466 19.823,3.455C18.975,3.339 18.061,3.28 17.103,3.28C13.637,3.28 10.822,4.054 8.964,5.516C7.308,6.82 6.432,8.623 6.432,10.733C6.432,13.083 7.334,14.943 9.185,16.417C10.82,17.717 12.997,18.562 14.917,19.306C16.53,19.931 18.054,20.523 19.088,21.302L19.088,21.302ZM23.857,10.91C23.892,11.289 23.907,11.658 23.909,12.009C23.909,13.503 23.635,14.962 23.094,16.346C23.077,16.393 23.038,16.428 22.992,16.445C22.974,16.452 22.954,16.456 22.934,16.456C22.905,16.456 22.877,16.449 22.852,16.435C21.438,15.65 19.896,15.075 18.406,14.519C15.513,13.44 13.016,12.508 13.016,10.465C13.016,9.736 13.321,9.114 13.898,8.668C14.564,8.154 15.563,7.892 16.865,7.892C19.306,7.892 21.315,8.733 23.797,10.794C23.832,10.823 23.853,10.865 23.857,10.91Z" style="fill:rgb(137,188,217);"/>
    </g>
</svg>
