<?xml version="1.0" encoding="UTF-8" standalone="no"?>
<!DOCTYPE svg PUBLIC "-//W3C//DTD SVG 1.1//EN" "http://www.w3.org/Graphics/SVG/1.1/DTD/svg11.dtd">
<svg width="100%" height="100%" viewBox="0 0 54 54" version="1.1" xmlns="http://www.w3.org/2000/svg" xmlns:xlink="http://www.w3.org/1999/xlink" xml:space="preserve" xmlns:serif="http://www.serif.com/" style="fill-rule:evenodd;clip-rule:evenodd;stroke-linejoin:round;stroke-miterlimit:2;">
    <g transform="matrix(0.390151,0,0,0.390151,2.149565,2.164054)">
        <path d="M64.094,126.224C98.369,126.172 126.115,98.291 126.115,63.899C126.115,30.066 98.497,2.202 65.502,1.613C30.85,0.995 1.894,29.113 1.885,63.21C1.875,98.289 29.497,126.274 64.094,126.224ZM63.993,4.63C96.9,4.619 123.119,31.355 123.109,64.91C123.098,96.589 96.184,123.09 64.017,123.097C31.246,123.104 4.892,96.534 4.893,63.489C4.895,31.296 31.659,4.641 63.993,4.63ZM39.157,35.896C39.695,37.689 38.189,38.313 36.588,38.438C34.903,38.568 33.219,38.695 31.263,38.844C37.719,58.078 44.078,77.027 50.588,96.417C51.052,95.658 51.243,95.444 51.327,95.194C54.901,84.512 58.495,73.837 61.978,63.125C62.296,62.148 62.138,60.854 61.79,59.85C59.947,54.53 57.739,49.326 56.123,43.942C55.018,40.256 53.552,37.871 49.195,38.298C48.453,38.371 47.547,36.774 46.716,35.949C47.721,35.349 48.719,34.245 49.733,34.23C58.605,34.094 67.479,34.096 76.351,34.238C77.369,34.255 78.367,35.388 79.372,36.003C78.492,36.807 77.733,38.013 76.704,38.324C75.053,38.822 73.222,38.728 71.246,38.904L90.595,96.464C93.526,86.728 96.253,77.788 98.905,68.825C101.271,60.824 99.861,53.352 95.583,46.305C94.297,44.186 92.717,42.13 91.988,39.819C91.16,37.19 90.472,34.197 90.911,31.56C91.656,27.091 95.085,24.872 99.725,24.447C74.333,0.881 34.431,9.317 19.728,34.922C25.388,34.661 30.792,34.318 36.2,34.244C37.222,34.231 38.917,35.095 39.157,35.896ZM49.274,113.867C49.156,114.212 49.149,114.596 49.056,115.169C59.999,118.203 70.731,117.984 81.715,114.283L64.935,68.323C59.565,83.934 54.415,98.898 49.274,113.867ZM40.818,111.789L15.537,42.439C4.132,64.717 12.808,98.707 40.818,111.789ZM117.246,67.227C118.048,56.693 114.414,42.108 111.276,40.102C110.926,43.977 111.17,48.288 110.058,52.216C107.441,61.471 104.241,70.565 101.159,79.684C97.809,89.596 94.327,99.463 90.902,109.35C106.994,99.811 115.837,85.732 117.246,67.227Z" style="fill:rgb(137,188,217);"/>
    </g>
</svg>
